<svg width="40" height="39" viewBox="0 0 40 39" fill="none" xmlns="http://www.w3.org/2000/svg">
<g filter="url(#filter0_d_347_2381)">
<path opacity="0.5" d="M35.9932 0.205369L28.1638 27.9931C28.124 28.1192 27.9647 28.1571 27.8718 28.0688L22.6301 23.0864L26.5581 9.16101C26.5979 9.03488 26.4785 8.92136 26.3458 8.9592L11.6955 12.6928L6.48031 7.73568C6.38742 7.64738 6.42723 7.49602 6.55993 7.45818L35.7809 0.00355214C35.9136 -0.021675 36.033 0.0918472 35.9932 0.205369Z" fill="#00BFFF"/>
<path opacity="0.5" d="M22.6289 23.087L20.6118 30.2767C20.572 30.4028 20.4128 30.4407 20.3199 30.3524L4.05063 14.9007C3.95773 14.8124 3.99754 14.6611 4.13025 14.6232L11.6943 12.6934L22.6289 23.087Z" fill="#00BFFF"/>
<path d="M26.5579 9.16038L22.6299 23.0858L11.6953 12.6922L26.3456 8.95856C26.4783 8.92072 26.5977 9.03425 26.5579 9.16038Z" fill="#00BFFF"/>
</g>
<defs>
<filter id="filter0_d_347_2381" x="0" y="0" width="40" height="38.4004" filterUnits="userSpaceOnUse" color-interpolation-filters="sRGB">
<feFlood flood-opacity="0" result="BackgroundImageFix"/>
<feColorMatrix in="SourceAlpha" type="matrix" values="0 0 0 0 0 0 0 0 0 0 0 0 0 0 0 0 0 0 127 0" result="hardAlpha"/>
<feOffset dy="4"/>
<feGaussianBlur stdDeviation="2"/>
<feComposite in2="hardAlpha" operator="out"/>
<feColorMatrix type="matrix" values="0 0 0 0 0 0 0 0 0 0 0 0 0 0 0 0 0 0 0.25 0"/>
<feBlend mode="normal" in2="BackgroundImageFix" result="effect1_dropShadow_347_2381"/>
<feBlend mode="normal" in="SourceGraphic" in2="effect1_dropShadow_347_2381" result="shape"/>
</filter>
</defs>
</svg>
