<svg width="32" height="31" viewBox="0 0 32 31" fill="none" xmlns="http://www.w3.org/2000/svg">
<path opacity="0.5" d="M31.9932 0.205369L24.1638 27.9931C24.124 28.1192 23.9647 28.1571 23.8718 28.0688L18.6301 23.0864L22.5581 9.16101C22.5979 9.03488 22.4785 8.92136 22.3458 8.9592L7.69549 12.6928L2.48031 7.73568C2.38742 7.64738 2.42723 7.49602 2.55993 7.45818L31.7809 0.00355214C31.9136 -0.021675 32.033 0.0918472 31.9932 0.205369Z" fill="#00B37E"/>
<path opacity="0.5" d="M18.6289 23.087L16.6118 30.2767C16.572 30.4028 16.4128 30.4407 16.3199 30.3524L0.0506254 14.9007C-0.0422659 14.8124 -0.00245554 14.6611 0.130246 14.6232L7.69425 12.6934L18.6289 23.087Z" fill="#00B37E"/>
<path d="M22.5579 9.16038L18.6299 23.0858L7.69531 12.6922L22.3456 8.95856C22.4783 8.92072 22.5977 9.03425 22.5579 9.16038Z" fill="#00B37E"/>
</svg>
